<mxfile host="Electron" modified="2024-05-15T11:22:02.426Z" agent="Mozilla/5.0 (Windows NT 10.0; Win64; x64) AppleWebKit/537.36 (KHTML, like Gecko) draw.io/24.1.0 Chrome/120.0.6099.109 Electron/28.1.0 Safari/537.36" etag="1ouJsTXA_84DbIyVlTJu" version="24.1.0" type="device">
  <diagram name="Page-1" id="tdRXgtYmae_oiIjL6MlQ">
    <mxGraphModel dx="1030" dy="593" grid="1" gridSize="10" guides="1" tooltips="1" connect="1" arrows="1" fold="1" page="1" pageScale="1" pageWidth="850" pageHeight="1100" math="0" shadow="0">
      <root>
        <mxCell id="0" />
        <mxCell id="1" parent="0" />
        <mxCell id="V2h0CMJ19aOjnw4QIRs--22" value="" style="rounded=0;whiteSpace=wrap;html=1;" parent="1" vertex="1">
          <mxGeometry x="583.5" y="400" width="130" height="60" as="geometry" />
        </mxCell>
        <mxCell id="V2h0CMJ19aOjnw4QIRs--7" value="" style="rounded=0;whiteSpace=wrap;html=1;" parent="1" vertex="1">
          <mxGeometry x="583.5" y="250" width="130" height="120" as="geometry" />
        </mxCell>
        <mxCell id="V2h0CMJ19aOjnw4QIRs--11" style="edgeStyle=orthogonalEdgeStyle;rounded=0;orthogonalLoop=1;jettySize=auto;html=1;" parent="1" source="V2h0CMJ19aOjnw4QIRs--1" edge="1">
          <mxGeometry relative="1" as="geometry">
            <mxPoint x="442.5" y="450" as="targetPoint" />
          </mxGeometry>
        </mxCell>
        <mxCell id="V2h0CMJ19aOjnw4QIRs--36" style="edgeStyle=orthogonalEdgeStyle;rounded=0;orthogonalLoop=1;jettySize=auto;html=1;entryX=1;entryY=0.5;entryDx=0;entryDy=0;" parent="1" source="V2h0CMJ19aOjnw4QIRs--1" target="V2h0CMJ19aOjnw4QIRs--30" edge="1">
          <mxGeometry relative="1" as="geometry" />
        </mxCell>
        <mxCell id="V2h0CMJ19aOjnw4QIRs--55" style="edgeStyle=orthogonalEdgeStyle;rounded=0;orthogonalLoop=1;jettySize=auto;html=1;entryX=0.5;entryY=1;entryDx=0;entryDy=0;" parent="1" source="V2h0CMJ19aOjnw4QIRs--1" target="V2h0CMJ19aOjnw4QIRs--41" edge="1">
          <mxGeometry relative="1" as="geometry" />
        </mxCell>
        <mxCell id="V2h0CMJ19aOjnw4QIRs--62" style="edgeStyle=orthogonalEdgeStyle;rounded=0;orthogonalLoop=1;jettySize=auto;html=1;" parent="1" source="V2h0CMJ19aOjnw4QIRs--1" target="V2h0CMJ19aOjnw4QIRs--61" edge="1">
          <mxGeometry relative="1" as="geometry" />
        </mxCell>
        <mxCell id="V2h0CMJ19aOjnw4QIRs--1" value="Home Page&amp;nbsp;🏠" style="rounded=1;whiteSpace=wrap;html=1;" parent="1" vertex="1">
          <mxGeometry x="393.5" y="275" width="99" height="70" as="geometry" />
        </mxCell>
        <mxCell id="V2h0CMJ19aOjnw4QIRs--2" value="Featured Movies" style="rounded=1;whiteSpace=wrap;html=1;" parent="1" vertex="1">
          <mxGeometry x="591" y="250" width="115" height="20" as="geometry" />
        </mxCell>
        <mxCell id="V2h0CMJ19aOjnw4QIRs--3" value="Randomized Recommendations" style="rounded=1;whiteSpace=wrap;html=1;" parent="1" vertex="1">
          <mxGeometry x="591" y="280" width="115" height="30" as="geometry" />
        </mxCell>
        <mxCell id="V2h0CMJ19aOjnw4QIRs--4" value="Search Bar" style="rounded=1;whiteSpace=wrap;html=1;" parent="1" vertex="1">
          <mxGeometry x="591" y="320" width="115" height="20" as="geometry" />
        </mxCell>
        <mxCell id="V2h0CMJ19aOjnw4QIRs--5" value="Login/Sign-Up&amp;nbsp;" style="rounded=1;whiteSpace=wrap;html=1;" parent="1" vertex="1">
          <mxGeometry x="591" y="350" width="115" height="20" as="geometry" />
        </mxCell>
        <mxCell id="V2h0CMJ19aOjnw4QIRs--37" style="edgeStyle=orthogonalEdgeStyle;rounded=0;orthogonalLoop=1;jettySize=auto;html=1;" parent="1" source="V2h0CMJ19aOjnw4QIRs--13" edge="1">
          <mxGeometry relative="1" as="geometry">
            <mxPoint x="313.5" y="430" as="targetPoint" />
          </mxGeometry>
        </mxCell>
        <mxCell id="V2h0CMJ19aOjnw4QIRs--69" style="edgeStyle=orthogonalEdgeStyle;rounded=0;orthogonalLoop=1;jettySize=auto;html=1;entryX=0.5;entryY=0;entryDx=0;entryDy=0;" parent="1" source="V2h0CMJ19aOjnw4QIRs--13" target="V2h0CMJ19aOjnw4QIRs--70" edge="1">
          <mxGeometry relative="1" as="geometry">
            <mxPoint x="442.4999999999998" y="570" as="targetPoint" />
          </mxGeometry>
        </mxCell>
        <mxCell id="V2h0CMJ19aOjnw4QIRs--13" value="Library Page" style="rounded=1;whiteSpace=wrap;html=1;" parent="1" vertex="1">
          <mxGeometry x="392.5" y="410" width="100" height="40" as="geometry" />
        </mxCell>
        <mxCell id="V2h0CMJ19aOjnw4QIRs--17" value="Genre Filtering" style="rounded=1;whiteSpace=wrap;html=1;" parent="1" vertex="1">
          <mxGeometry x="591" y="400" width="115" height="20" as="geometry" />
        </mxCell>
        <mxCell id="V2h0CMJ19aOjnw4QIRs--18" value="Movie Thumbnails with Ratings" style="rounded=1;whiteSpace=wrap;html=1;" parent="1" vertex="1">
          <mxGeometry x="588.5" y="430" width="120" height="30" as="geometry" />
        </mxCell>
        <mxCell id="V2h0CMJ19aOjnw4QIRs--19" value="Movie Details Page" style="rounded=1;whiteSpace=wrap;html=1;" parent="1" vertex="1">
          <mxGeometry x="209" y="410" width="120" height="30" as="geometry" />
        </mxCell>
        <mxCell id="V2h0CMJ19aOjnw4QIRs--24" value="" style="rounded=0;whiteSpace=wrap;html=1;" parent="1" vertex="1">
          <mxGeometry x="209" y="475" width="120" height="90" as="geometry" />
        </mxCell>
        <mxCell id="V2h0CMJ19aOjnw4QIRs--25" value="Plot Interpretations" style="rounded=1;whiteSpace=wrap;html=1;" parent="1" vertex="1">
          <mxGeometry x="211.5" y="475" width="115" height="20" as="geometry" />
        </mxCell>
        <mxCell id="V2h0CMJ19aOjnw4QIRs--26" value="User Reviews" style="rounded=1;whiteSpace=wrap;html=1;" parent="1" vertex="1">
          <mxGeometry x="211.5" y="505" width="115" height="20" as="geometry" />
        </mxCell>
        <mxCell id="V2h0CMJ19aOjnw4QIRs--27" value="Watchlist and Playback" style="rounded=1;whiteSpace=wrap;html=1;" parent="1" vertex="1">
          <mxGeometry x="211.5" y="535" width="115" height="30" as="geometry" />
        </mxCell>
        <mxCell id="V2h0CMJ19aOjnw4QIRs--30" value="User Profile Page" style="rounded=1;whiteSpace=wrap;html=1;" parent="1" vertex="1">
          <mxGeometry x="229" y="295" width="100" height="30" as="geometry" />
        </mxCell>
        <mxCell id="V2h0CMJ19aOjnw4QIRs--32" value="Personal Information" style="rounded=1;whiteSpace=wrap;html=1;" parent="1" vertex="1">
          <mxGeometry x="100" y="295" width="100" height="30" as="geometry" />
        </mxCell>
        <mxCell id="V2h0CMJ19aOjnw4QIRs--41" value="Settings&lt;br&gt;Page" style="rounded=1;whiteSpace=wrap;html=1;" parent="1" vertex="1">
          <mxGeometry x="329" y="145" width="71" height="50" as="geometry" />
        </mxCell>
        <mxCell id="V2h0CMJ19aOjnw4QIRs--42" value="" style="rounded=0;whiteSpace=wrap;html=1;" parent="1" vertex="1">
          <mxGeometry x="100" y="160" width="109" height="90" as="geometry" />
        </mxCell>
        <mxCell id="V2h0CMJ19aOjnw4QIRs--43" value="" style="endArrow=none;dashed=1;html=1;dashPattern=1 3;strokeWidth=2;rounded=0;entryX=-0.019;entryY=0.589;entryDx=0;entryDy=0;entryPerimeter=0;" parent="1" target="V2h0CMJ19aOjnw4QIRs--22" edge="1">
          <mxGeometry width="50" height="50" relative="1" as="geometry">
            <mxPoint x="492.5" y="435" as="sourcePoint" />
            <mxPoint x="563.5" y="435" as="targetPoint" />
          </mxGeometry>
        </mxCell>
        <mxCell id="V2h0CMJ19aOjnw4QIRs--44" value="" style="endArrow=none;dashed=1;html=1;dashPattern=1 3;strokeWidth=2;rounded=0;entryX=0;entryY=0.5;entryDx=0;entryDy=0;" parent="1" target="V2h0CMJ19aOjnw4QIRs--7" edge="1">
          <mxGeometry width="50" height="50" relative="1" as="geometry">
            <mxPoint x="492.5" y="309.31" as="sourcePoint" />
            <mxPoint x="563.5" y="310" as="targetPoint" />
          </mxGeometry>
        </mxCell>
        <mxCell id="V2h0CMJ19aOjnw4QIRs--45" value="" style="endArrow=none;dashed=1;html=1;dashPattern=1 3;strokeWidth=2;rounded=0;entryX=0.5;entryY=1;entryDx=0;entryDy=0;" parent="1" target="V2h0CMJ19aOjnw4QIRs--19" edge="1">
          <mxGeometry width="50" height="50" relative="1" as="geometry">
            <mxPoint x="269" y="470" as="sourcePoint" />
            <mxPoint x="297" y="460" as="targetPoint" />
          </mxGeometry>
        </mxCell>
        <mxCell id="V2h0CMJ19aOjnw4QIRs--50" value="" style="endArrow=none;dashed=1;html=1;dashPattern=1 3;strokeWidth=2;rounded=0;entryX=0.5;entryY=1;entryDx=0;entryDy=0;exitX=1;exitY=0.5;exitDx=0;exitDy=0;" parent="1" source="V2h0CMJ19aOjnw4QIRs--32" edge="1">
          <mxGeometry width="50" height="50" relative="1" as="geometry">
            <mxPoint x="229" y="340" as="sourcePoint" />
            <mxPoint x="229" y="310" as="targetPoint" />
          </mxGeometry>
        </mxCell>
        <mxCell id="V2h0CMJ19aOjnw4QIRs--51" value="" style="endArrow=none;dashed=1;html=1;dashPattern=1 3;strokeWidth=2;rounded=0;entryX=0.5;entryY=1;entryDx=0;entryDy=0;" parent="1" target="V2h0CMJ19aOjnw4QIRs--42" edge="1">
          <mxGeometry width="50" height="50" relative="1" as="geometry">
            <mxPoint x="155" y="294" as="sourcePoint" />
            <mxPoint x="179" y="294.31" as="targetPoint" />
          </mxGeometry>
        </mxCell>
        <mxCell id="V2h0CMJ19aOjnw4QIRs--52" value="Contribution History" style="rounded=1;whiteSpace=wrap;html=1;" parent="1" vertex="1">
          <mxGeometry x="104.5" y="160" width="100" height="30" as="geometry" />
        </mxCell>
        <mxCell id="V2h0CMJ19aOjnw4QIRs--53" value="Watchlist" style="rounded=1;whiteSpace=wrap;html=1;" parent="1" vertex="1">
          <mxGeometry x="104.5" y="195" width="100" height="15" as="geometry" />
        </mxCell>
        <mxCell id="V2h0CMJ19aOjnw4QIRs--54" value="Viewing Preference" style="rounded=1;whiteSpace=wrap;html=1;" parent="1" vertex="1">
          <mxGeometry x="104.5" y="217.5" width="100" height="32.5" as="geometry" />
        </mxCell>
        <mxCell id="V2h0CMJ19aOjnw4QIRs--56" value="" style="endArrow=none;dashed=1;html=1;dashPattern=1 3;strokeWidth=2;rounded=0;entryX=0.5;entryY=1;entryDx=0;entryDy=0;" parent="1" edge="1">
          <mxGeometry width="50" height="50" relative="1" as="geometry">
            <mxPoint x="364.15999999999997" y="147.5" as="sourcePoint" />
            <mxPoint x="364.15999999999997" y="103.5" as="targetPoint" />
          </mxGeometry>
        </mxCell>
        <mxCell id="V2h0CMJ19aOjnw4QIRs--57" value="" style="rounded=0;whiteSpace=wrap;html=1;" parent="1" vertex="1">
          <mxGeometry x="311" y="20" width="108" height="100" as="geometry" />
        </mxCell>
        <mxCell id="V2h0CMJ19aOjnw4QIRs--58" value="Account Settings" style="rounded=1;whiteSpace=wrap;html=1;" parent="1" vertex="1">
          <mxGeometry x="314" y="20" width="100" height="30" as="geometry" />
        </mxCell>
        <mxCell id="V2h0CMJ19aOjnw4QIRs--59" value="Privacy and Security" style="rounded=1;whiteSpace=wrap;html=1;" parent="1" vertex="1">
          <mxGeometry x="315" y="55" width="100" height="30" as="geometry" />
        </mxCell>
        <mxCell id="V2h0CMJ19aOjnw4QIRs--60" value="UI Customization" style="rounded=1;whiteSpace=wrap;html=1;" parent="1" vertex="1">
          <mxGeometry x="315" y="90" width="100" height="30" as="geometry" />
        </mxCell>
        <mxCell id="V2h0CMJ19aOjnw4QIRs--61" value="IMDb Integration" style="rounded=1;whiteSpace=wrap;html=1;" parent="1" vertex="1">
          <mxGeometry x="492.5" y="145" width="71" height="50" as="geometry" />
        </mxCell>
        <mxCell id="V2h0CMJ19aOjnw4QIRs--63" value="Optional" style="text;html=1;align=center;verticalAlign=middle;whiteSpace=wrap;rounded=0;" parent="1" vertex="1">
          <mxGeometry x="463.5" y="230" width="60" height="30" as="geometry" />
        </mxCell>
        <mxCell id="V2h0CMJ19aOjnw4QIRs--64" value="" style="endArrow=none;dashed=1;html=1;dashPattern=1 3;strokeWidth=2;rounded=0;entryX=0.5;entryY=1;entryDx=0;entryDy=0;" parent="1" edge="1">
          <mxGeometry width="50" height="50" relative="1" as="geometry">
            <mxPoint x="527.66" y="145" as="sourcePoint" />
            <mxPoint x="527.66" y="101" as="targetPoint" />
          </mxGeometry>
        </mxCell>
        <mxCell id="V2h0CMJ19aOjnw4QIRs--65" value="" style="rounded=0;whiteSpace=wrap;html=1;" parent="1" vertex="1">
          <mxGeometry x="476.75" y="22.5" width="102.5" height="97.5" as="geometry" />
        </mxCell>
        <mxCell id="V2h0CMJ19aOjnw4QIRs--66" value="Movie Leaderboards" style="rounded=1;whiteSpace=wrap;html=1;" parent="1" vertex="1">
          <mxGeometry x="479.25" y="25" width="100" height="30" as="geometry" />
        </mxCell>
        <mxCell id="V2h0CMJ19aOjnw4QIRs--67" value="Charts" style="rounded=1;whiteSpace=wrap;html=1;" parent="1" vertex="1">
          <mxGeometry x="478" y="60" width="100" height="20" as="geometry" />
        </mxCell>
        <mxCell id="V2h0CMJ19aOjnw4QIRs--68" value="Viewing Preferences" style="rounded=1;whiteSpace=wrap;html=1;" parent="1" vertex="1">
          <mxGeometry x="478" y="85" width="100" height="32.5" as="geometry" />
        </mxCell>
        <mxCell id="V2h0CMJ19aOjnw4QIRs--70" value="Art and Creativity Hub" style="rounded=1;whiteSpace=wrap;html=1;" parent="1" vertex="1">
          <mxGeometry x="382.5" y="535" width="120" height="40" as="geometry" />
        </mxCell>
        <mxCell id="V2h0CMJ19aOjnw4QIRs--71" value="Optional" style="text;html=1;align=center;verticalAlign=middle;whiteSpace=wrap;rounded=0;" parent="1" vertex="1">
          <mxGeometry x="445.75" y="475" width="60" height="30" as="geometry" />
        </mxCell>
        <mxCell id="V2h0CMJ19aOjnw4QIRs--73" value="" style="endArrow=none;dashed=1;html=1;dashPattern=1 3;strokeWidth=2;rounded=0;entryX=0.5;entryY=1;entryDx=0;entryDy=0;" parent="1" edge="1">
          <mxGeometry width="50" height="50" relative="1" as="geometry">
            <mxPoint x="443.5" y="605" as="sourcePoint" />
            <mxPoint x="443" y="575" as="targetPoint" />
          </mxGeometry>
        </mxCell>
        <mxCell id="V2h0CMJ19aOjnw4QIRs--74" value="" style="rounded=0;whiteSpace=wrap;html=1;" parent="1" vertex="1">
          <mxGeometry x="377.5" y="595" width="131" height="70" as="geometry" />
        </mxCell>
        <mxCell id="V2h0CMJ19aOjnw4QIRs--75" value="AI-Generated or User-Submitted Artwork" style="rounded=1;whiteSpace=wrap;html=1;" parent="1" vertex="1">
          <mxGeometry x="380.25" y="595" width="125.5" height="30" as="geometry" />
        </mxCell>
        <mxCell id="V2h0CMJ19aOjnw4QIRs--77" value="Community Contributions" style="rounded=1;whiteSpace=wrap;html=1;" parent="1" vertex="1">
          <mxGeometry x="380.25" y="635" width="125.5" height="30" as="geometry" />
        </mxCell>
      </root>
    </mxGraphModel>
  </diagram>
</mxfile>
